<svg width="25" height="25" viewBox="0 0 25 25" fill="none" xmlns="http://www.w3.org/2000/svg">
<circle cx="12.5" cy="12.5" r="12" fill="white" stroke="#0F84F4"/>
<path fill-rule="evenodd" clip-rule="evenodd" d="M15.4543 6.30273C15.8575 5.89933 16.5113 5.89906 16.9149 6.30211L18.697 8.0822C19.1007 8.48543 19.101 9.13958 18.6977 9.54315L10.2847 17.9604C10.1408 18.1044 9.95765 18.2026 9.75814 18.2428L6 19L6.75861 15.2464C6.79884 15.0473 6.89689 14.8645 7.04048 14.7209L15.4543 6.30273Z" fill="#0F84F4"/>
<path d="M12.1078 9.65094L15.4543 12.7882M6 19L9.75814 18.2428C9.95765 18.2026 10.1408 18.1044 10.2847 17.9604L18.6977 9.54315C19.101 9.13958 19.1007 8.48543 18.697 8.0822L16.9149 6.30211C16.5113 5.89906 15.8575 5.89933 15.4543 6.30273L7.04048 14.7209C6.89689 14.8645 6.79884 15.0473 6.75861 15.2464L6 19Z" stroke="white" stroke-linecap="round" stroke-linejoin="round"/>
</svg>
